<svg id="Layer_1" data-name="Layer 1" xmlns="http://www.w3.org/2000/svg" width="378.73" height="189.06" viewBox="0 0 378.73 189.06"><title>akplogo</title><g opacity="0.15"><path d="M23.89,132.53q0,.64-.92,1.08a3.93,3.93,0,0,1-1.68.44q-2.54,0-5.72-4.38-2.23-3.24-4.39-6.48-3.56,3.69-8.64,14.42Q0,137,0,134.95q0-1.14,4.73-7.69t4.73-6.93q0-.64-3-5.59A61,61,0,0,0,2.61,109a2.51,2.51,0,0,1,2.6-1.72,2.6,2.6,0,0,1,2,1q.06.19,1.33,3a47.22,47.22,0,0,0,3,6q2.42-3,4.83-6,3.87-4.83,4.83-4.83a1.54,1.54,0,0,1,1.21.6,2,2,0,0,1,.51,1.3q0,.51-4.86,5.59t-4.86,6.16q0,1.27,4.19,6.48t5.34,5.21a6.17,6.17,0,0,0,1.15-.19Z" fill="#6d6e70"/><line x1="48.28" y1="128.22" x2="373.45" y2="128.22" fill="none" stroke="#808184" stroke-miterlimit="10"/><g style="isolation:isolate"><path d="M142.74,80.55c0,8.44-13.89,14.89-21,16a9.45,9.45,0,0,0-1.65,5.62c0,2.48,1,4.8,4,4.8,4.47,0,16.21-9.26,19.68-15.88l5.79-10.92c1.49-2.48,3.64-4.47,7.11-4.47,3.14,0,8.77,1.32,8.77,4.63,0,4.14-7.28,17.37-9.43,25.64C174.5,99.74,193.85,82.2,195.5,82.2c1.49,0,2.64,3.31,2.64,4.8,0,3-.5,3.8-2.64,5.29-21.67,15.55-41,26.63-52.27,26.63-4.14,0-6.45-2.32-6.45-7.28a15.46,15.46,0,0,1,.66-4.47c-7.44,7.44-15.88,12.24-22.49,12.24-7.44,0-11.58-3.14-11.58-10.26,0-14.39,23.16-33.91,33.08-33.91C140.92,75.26,142.74,78.23,142.74,80.55Z" fill="#404041"/><path d="M170.85,113.8c0-5.46,16.87-40,25.64-56.24C215.18,23.32,231.22,0,235.85,0c3.14,0,5,5,5,8.44,0,9.92-25.31,52.43-40.69,72.78-3,5.29-5.62,11.58-8.11,16.54,12.24-12.24,22.66-22,33.41-22,4.63,0,7.61,2.48,7.61,6,0,6.95-11.08,13.73-20.67,15.05,0,5,2.64,9.92,8.1,9.92a9.8,9.8,0,0,0,3.48-.66c16.71-6,31.76-19,34.9-21.34,1.82-1.32,2.32-1.65,3-1.65,1.82,0,3.14,2.81,3.14,5.29a4.48,4.48,0,0,1-1.32,3.47c-21.67,15.55-38.71,27.13-53.26,27.13-8.6,0-12.74-10.09-12.74-17-9.92,8.43-17,17.7-20.51,17.7C174.32,119.59,170.85,116.61,170.85,113.8Z" fill="#404041"/><path d="M267.6,84.41c6.45-5.62,13.89-10.09,20.51-10.09,7.44,0,11.58,3.14,11.58,10.26,0,6.45-4.63,13.89-10.59,20.18,19.19-5.13,33.58-16,39.86-21.34,2.15-1.65,3.14-2.48,3.47-2.48,1.49,0,2.48,2.81,2.48,5.46,0,1.82-.5,3.64-1.65,4.47-16.87,12.4-47.47,27.13-66,27.62h-.66c-4.47,0-6.29-3-6.29-5.29,0-4.3,6.29-6.95,13.07-6.95,6.95-5.62,9.76-11.08,9.76-14.89,0-2.81-1.65-4.63-4.13-4.63-6.12,0-16.21,9.26-19.68,15.88l-5.79,10.92c-6.28,11.91-26.44,61.15-33.55,73.89a3.26,3.26,0,0,1-2.81,1.65c-3.31,0-7.44-4.8-7.44-8.93a4.85,4.85,0,0,1,.33-1.66c5.13-14.55,38.68-89.6,47.61-107.79C259,68,261.65,67,264.62,67c4.3,0,8.77,2.32,8.77,4.8a2.36,2.36,0,0,1-.33,1C271.24,76.14,269.59,80.11,267.6,84.41Z" fill="#404041"/></g></g><text transform="translate(96.12 59.77) scale(0.94 1)" font-size="22.68" fill="#231f20" font-family="LaoSangamMN, Lao Sangam MN" letter-spacing="0.3em">ASHANTI K. PR<tspan x="237.93" y="0" letter-spacing="0.24em">A</tspan><tspan x="257.19" y="0" letter-spacing="0.3em">TT</tspan></text><text transform="translate(264.58 140.84)" font-size="12.73" fill="#404041" font-family="LaoSangamMN, Lao Sangam MN">visual design</text></svg>