<svg xmlns="http://www.w3.org/2000/svg" width="162.48" height="82.26" viewBox="0 0 162.48 82.26"><title>logoWhite</title><g id="Layer_2" data-name="Layer 2"><g id="Layer_1-2" data-name="Layer 1"><g opacity="0.75"><path d="M10.4,57.66q0,.28-.4.47a1.71,1.71,0,0,1-.73.19q-1.11,0-2.49-1.91Q5.81,55,4.87,53.6a25.59,25.59,0,0,0-3.76,6.28Q0,59.63,0,58.71q0-.5,2.06-3.35a28,28,0,0,0,2.06-3,12.07,12.07,0,0,0-1.33-2.43,26.56,26.56,0,0,0-1.66-2.49,1.09,1.09,0,0,1,1.13-.75,1.13,1.13,0,0,1,.86.44q0,.08.58,1.3A20.54,20.54,0,0,0,5,51.06l2.1-2.63q1.69-2.1,2.1-2.1a.67.67,0,0,1,.53.26.86.86,0,0,1,.22.57,14.37,14.37,0,0,1-2.11,2.43Q5.75,51.8,5.75,52.27t1.82,2.82q1.82,2.27,2.32,2.27a2.69,2.69,0,0,0,.5-.08Z" fill="#fff"/><line x1="21.01" y1="55.79" x2="162.48" y2="55.79" fill="none" stroke="#fff" stroke-miterlimit="10"/><g style="isolation:isolate"><path d="M62.1,35c0,3.67-6,6.48-9.14,7a4.11,4.11,0,0,0-.72,2.45c0,1.08.43,2.09,1.73,2.09,1.94,0,7.05-4,8.56-6.91l2.52-4.75A3.5,3.5,0,0,1,68.15,33c1.37,0,3.81.58,3.81,2,0,1.8-3.17,7.56-4.1,11.15,8.06-2.73,16.48-10.36,17.2-10.36s1.15,1.44,1.15,2.09a2.17,2.17,0,0,1-1.15,2.3c-9.43,6.76-17.85,11.59-22.74,11.59-1.8,0-2.81-1-2.81-3.17a6.73,6.73,0,0,1,.29-1.94C56.56,49.87,52.89,52,50,52c-3.24,0-5-1.37-5-4.46,0-6.26,10.08-14.75,14.39-14.75A2.44,2.44,0,0,1,62.1,35Z" fill="#fff"/><path d="M74.33,49.51c0-2.38,7.34-17.42,11.15-24.47,8.13-14.9,15.11-25,17.13-25,1.37,0,2.16,2.16,2.16,3.67,0,4.32-11,22.81-17.7,31.66-1.3,2.3-2.45,5-3.53,7.2C88.87,37.2,93.4,33,98.08,33c2,0,3.31,1.08,3.31,2.59,0,3-4.82,6-9,6.55,0,2.16,1.15,4.32,3.53,4.32a4.27,4.27,0,0,0,1.51-.29c7.27-2.59,13.82-8.28,15.18-9.28.79-.58,1-.72,1.3-.72.79,0,1.37,1.22,1.37,2.3a2,2,0,0,1-.58,1.51c-9.43,6.76-16.84,11.8-23.17,11.8-3.74,0-5.54-4.39-5.54-7.41C81.67,48,78.58,52,77.07,52A3,3,0,0,1,74.33,49.51Z" fill="#fff"/><path d="M116.43,36.73c2.81-2.45,6-4.39,8.92-4.39,3.24,0,5,1.37,5,4.46,0,2.81-2,6-4.61,8.78a46.45,46.45,0,0,0,17.34-9.28,7.46,7.46,0,0,1,1.51-1.08c.65,0,1.08,1.22,1.08,2.38a2.4,2.4,0,0,1-.72,1.94c-7.34,5.4-20.65,11.8-28.71,12H116a2.44,2.44,0,0,1-2.74-2.3c0-1.87,2.74-3,5.69-3,3-2.45,4.25-4.82,4.25-6.48a1.8,1.8,0,0,0-1.8-2c-2.66,0-7.05,4-8.56,6.91l-2.52,4.75c-2.73,5.18-11.5,26.61-14.6,32.15a1.42,1.42,0,0,1-1.22.72c-1.44,0-3.24-2.09-3.24-3.89a2.11,2.11,0,0,1,.14-.72c2.23-6.33,16.83-39,20.71-46.9a3.12,3.12,0,0,1,3-1.58c1.87,0,3.81,1,3.81,2.09a1,1,0,0,1-.14.43C118,33.13,117.29,34.85,116.43,36.73Z" fill="#fff"/></g></g></g></g></svg>