<svg id="Layer_1" data-name="Layer 1" xmlns="http://www.w3.org/2000/svg" width="530.48" height="187.79" viewBox="0 0 530.48 187.79"><title>queueLogoTag</title><ellipse cx="11.22" cy="10.78" rx="10.22" ry="9.78" fill="none" stroke="#5b6f1a" stroke-miterlimit="10" stroke-width="2"/><ellipse cx="44.11" cy="16.56" rx="10.22" ry="9.33" fill="none" stroke="#5b6f1a" stroke-miterlimit="10" stroke-width="2"/><rect x="5.44" y="25.89" width="10.67" height="63.11" rx="5.05" ry="5.05" fill="none" stroke="#5b6f1a" stroke-miterlimit="10" stroke-width="2"/><rect x="39.22" y="30.33" width="10.67" height="58.67" rx="5.05" ry="5.05" fill="none" stroke="#5b6f1a" stroke-miterlimit="10" stroke-width="2"/><ellipse cx="77" cy="25" rx="10.22" ry="9.78" fill="none" stroke="#5b6f1a" stroke-miterlimit="10" stroke-width="2"/><rect x="71.22" y="38.33" width="8.89" height="50.67" rx="4.44" ry="4.44" fill="none" stroke="#5b6f1a" stroke-miterlimit="10" stroke-width="2"/><ellipse cx="95.67" cy="84.56" rx="3.56" ry="4" fill="#5b6f1a" stroke="#5b6f1a" stroke-miterlimit="10"/><ellipse cx="109.89" cy="84.56" rx="3.56" ry="4" fill="#5b6f1a" stroke="#5b6f1a" stroke-miterlimit="10"/><circle cx="122.78" cy="84.56" r="3.11" fill="#5b6f1a" stroke="#5b6f1a" stroke-miterlimit="10"/><path d="M287.05,147.05c-6.2,16.67-7.81,35-15.94,53.3a4.77,4.77,0,0,1-3.46,2.42c-3.62,0-9.9-.56-9.9-3.54a2.31,2.31,0,0,1,.89-1.53c7.73-6,17.71-48.23,17.71-48.23-16.75,3.7-33.57,6.68-33.57,11.92,0,2.5,5.39,2.9,7.33,2.9a67.81,67.81,0,0,0,7.65-.8c1.13,0,1.45.4,1.45,1,0,2.17-5.56,7-15.3,7-7.41,0-11.51-5-11.51-10.55,0-13.2,11.67-13.45,49-20.53a.4.4,0,0,1,.24.08c4.59-6.12,9.9-11.83,18.6-11.83,3.78,0,6,2.09,6,5C306.22,138.11,300.82,144.23,287.05,147.05Z" transform="translate(-84.26 -113)" fill="#fff"/><path d="M321.35,200.91c-3.78,0-7.17-1.77-7.17-5.64,0-3.46,1.93-6.28,1.93-7.49,0-.4-.16-.64-.89-.64-4.83,0-11.51,7.89-12.56,9.82-.64,1.13-1.29,3.78-5.07,3.78-4.19,0-5.72-2-5.72-4.59a108.59,108.59,0,0,1,1.21-16.1,8.75,8.75,0,0,1-1.45.08s-9.42-.16-9.42-3.46c0-1,.64-2.17,1.45-2.17a42.58,42.58,0,0,0,10.79-1.45c3.95-18.28,13-36.39,29.71-36.39,5.56,0,9.66,2.9,9.66,7.17,0,12.88-16.67,27.21-30.51,33.33a50.4,50.4,0,0,0-.81,6.52c0,.4.08.64.32.64a1.37,1.37,0,0,0,.4-.16c3.62-2.9,13.12-8.94,18.84-8.94,2.5,0,4.67.81,4.67,3.46,0,1.53-1.85,7.41-1.85,9.9s1.37,2.58,2.42,2.58c1.45,0,5.39-.16,6.68-.64a5.72,5.72,0,0,1,1.61-.32,2.53,2.53,0,0,1,2.25,2.5C337.86,196.89,326.35,200.91,321.35,200.91Zm-3.3-56.28c-6.12,0-10.47,12.8-13,23.83,10.31-6.12,16.75-15.46,16.75-21.09C321.76,145.28,320.07,144.64,318.05,144.64Z" transform="translate(-84.26 -113)" fill="#fff"/><path d="M348.73,190.61s0,1.93,7,1.93c5.88,0,7.73-3.46,10.71-3.46,1.61,0,2.5.8,2.5,2,0,5.39-9.5,9.5-18.36,9.5-10.55,0-15-4.83-15-10.63,0-9,10.63-20.61,25-20.61,7.25,0,10.14,2.34,10.14,5.39C370.79,180.54,360.4,189.16,348.73,190.61Zm8.37-15.06c-3.3,0-9.82,4.27-9.82,8.05,0,.48.16.81.8.81,3.95,0,11.27-4.75,11.27-7.65C359.36,175.79,358.23,175.55,357.1,175.55Z" transform="translate(-84.26 -113)" fill="#fff"/><path d="M454.53,165.17c-2.74,11.59-10.95,25.44-24.64,33a5.1,5.1,0,0,0,3,1.13c3.62,0,2.82-2.5,5.8-2.5a2.28,2.28,0,0,1,2.25,2.17c0,3.22-6.36,8.37-11.27,8.37-3.86,0-6.92-2.25-9.34-5.23a46.4,46.4,0,0,1-12.8,1.77c-13.36,0-19.72-9.34-19.72-21.17,0-20.21,18.36-47.5,51.2-47.5,5.88,0,7.49,1.69,7.49,3.3s-1.45,3-2.25,3c-2.17,0-2.66-.56-6.6-.56-22.3,0-38.81,25.68-38.81,41.79,0,7.33,3.46,12.64,11.27,12.64a29.58,29.58,0,0,0,6-.56,22.08,22.08,0,0,1-1.77-7.65c0-3.54,7.25-4.83,7.25-4.83,1.45,0,1.77,1.69,1.77,3.06a16,16,0,0,0,1.69,6.44c9.82-5.23,15.7-15.14,18.44-23.35a16.81,16.81,0,0,1-2,.08c-5,0-8.94-1.93-8.94-7.17,0-9.26,10.79-15.46,15.86-15.46,4.67,0,7.08,4.51,7.08,11v1.21l1.69-.89a2.85,2.85,0,0,1,1.53-.48,2,2,0,0,1,1.93,2.25C460.65,161.06,458.07,163.4,454.53,165.17Zm-11-10.06c-1.93,0-3.14,4.67-3.14,5.88,0,1,.8,1.45,2.09,1.45a9,9,0,0,0,2.34-.32,24.42,24.42,0,0,0,.24-3.22C445.1,156.55,444.62,155.1,443.57,155.1Z" transform="translate(-84.26 -113)" fill="#fff"/><path d="M489,199.22c-7.17,0-7.41-3.95-7.41-4.75,0-2.66-.08-2.66-.16-2.66-.64,0-9,6.76-17.71,6.76-6.36,0-7.57-2.9-7.57-7.41,0-2.66,2.58-9.58,2.58-10.55s-1-1.29-2.17-1.29c-2.5,0-6.2,1.29-6.68,1.29a1.93,1.93,0,0,1-2.09-2c0-4.91,8.94-8.69,12.8-8.69,2.42,0,5.88,1,5.88,4.51,0,3.86-1.45,7.41-1.45,9.74,0,1.69.72,2.74,3.3,2.74,11.51,0,18.92-12.24,22.87-12.24a2.66,2.66,0,0,1,2.74,2.42c0,2.66-2.82,5.56-2.82,10.47,0,2,1.13,3.22,3.38,3.22s3.14-1,4.51-1c1.21,0,1.77.56,1.77,1.45C500.74,193.91,495.74,199.22,489,199.22Z" transform="translate(-84.26 -113)" fill="#fff"/><path d="M512.09,190.61s0,1.93,7,1.93c5.88,0,7.73-3.46,10.71-3.46,1.61,0,2.5.8,2.5,2,0,5.39-9.5,9.5-18.36,9.5-10.55,0-15-4.83-15-10.63,0-9,10.63-20.61,25-20.61,7.25,0,10.14,2.34,10.14,5.39C534.15,180.54,523.76,189.16,512.09,190.61Zm8.37-15.06c-3.3,0-9.82,4.27-9.82,8.05,0,.48.16.81.81.81,3.94,0,11.27-4.75,11.27-7.65C522.72,175.79,521.59,175.55,520.46,175.55Z" transform="translate(-84.26 -113)" fill="#fff"/><path d="M569.57,199.22c-7.17,0-7.41-3.95-7.41-4.75,0-2.66-.08-2.66-.16-2.66-.64,0-9,6.76-17.71,6.76-6.36,0-7.57-2.9-7.57-7.41,0-2.66,2.58-9.58,2.58-10.55s-1-1.29-2.17-1.29c-2.5,0-6.2,1.29-6.68,1.29a1.93,1.93,0,0,1-2.09-2c0-4.91,8.94-8.69,12.8-8.69,2.42,0,5.88,1,5.88,4.51,0,3.86-1.45,7.41-1.45,9.74,0,1.69.72,2.74,3.3,2.74,11.51,0,18.92-12.24,22.87-12.24a2.66,2.66,0,0,1,2.74,2.42c0,2.66-2.82,5.56-2.82,10.47,0,2,1.13,3.22,3.38,3.22s3.14-1,4.51-1c1.21,0,1.77.56,1.77,1.45C581.33,193.91,576.34,199.22,569.57,199.22Z" transform="translate(-84.26 -113)" fill="#fff"/><path d="M592.68,190.61s0,1.93,7,1.93c5.88,0,7.73-3.46,10.71-3.46,1.61,0,2.5.8,2.5,2,0,5.39-9.5,9.5-18.36,9.5-10.55,0-15-4.83-15-10.63,0-9,10.63-20.61,25-20.61,7.25,0,10.14,2.34,10.14,5.39C614.74,180.54,604.36,189.16,592.68,190.61Zm8.37-15.06c-3.3,0-9.82,4.27-9.82,8.05,0,.48.16.81.81.81,3.94,0,11.27-4.75,11.27-7.65C603.31,175.79,602.18,175.55,601.05,175.55Z" transform="translate(-84.26 -113)" fill="#fff"/><path d="M199.68,300.79a43,43,0,0,1-6-10.53,33,33,0,0,1-.62-23.4,45.86,45.86,0,0,1,6.65-12.06h3.09q-2.9,5-3.83,7.11a38.8,38.8,0,0,0-2.3,6.89,40,40,0,0,0-1,9q0,11.51,7.15,23Z" transform="translate(-84.26 -113)" fill="#5b6f1a"/><path d="M202.28,300.34l.81-3.66a8.66,8.66,0,0,0,2,.33,2.28,2.28,0,0,0,2-.87q.65-.87.65-4.37v-26.7H212v26.8q0,4.69-1.22,6.53-1.56,2.39-5.17,2.39A12.49,12.49,0,0,1,202.28,300.34Zm5.46-39.93v-5H212v5Z" transform="translate(-84.26 -113)" fill="#5b6f1a"/><path d="M217,277.78q0-7.06,3.92-10.46a11.82,11.82,0,0,1,8-2.82,11.4,11.4,0,0,1,8.57,3.43q3.33,3.43,3.33,9.49a16.81,16.81,0,0,1-1.47,7.72,10.42,10.42,0,0,1-4.28,4.37,12.47,12.47,0,0,1-6.14,1.56,11.42,11.42,0,0,1-8.62-3.42Q217,284.21,217,277.78Zm4.43,0q0,4.88,2.13,7.31a7.09,7.09,0,0,0,10.69,0q2.13-2.44,2.13-7.44,0-4.71-2.14-7.14a7.1,7.1,0,0,0-10.68,0Q221.47,272.9,221.47,277.78Z" transform="translate(-84.26 -113)" fill="#5b6f1a"/><path d="M245.93,260.36v-5h4.31v5Zm0,30.12V265.07h4.31v25.41Z" transform="translate(-84.26 -113)" fill="#5b6f1a"/><path d="M256.79,290.48V265.07h3.88v3.61a9.13,9.13,0,0,1,8.09-4.19,10.62,10.62,0,0,1,4.22.83,6.65,6.65,0,0,1,2.88,2.17,8.32,8.32,0,0,1,1.34,3.18,24.7,24.7,0,0,1,.24,4.19v15.62h-4.31V275a11.6,11.6,0,0,0-.5-3.94,4.14,4.14,0,0,0-1.78-2.08,5.67,5.67,0,0,0-3-.78,7,7,0,0,0-4.75,1.75q-2,1.75-2,6.63v13.88Z" transform="translate(-84.26 -113)" fill="#5b6f1a"/><path d="M307.06,286.63l.62,3.8a16,16,0,0,1-3.25.38,7.37,7.37,0,0,1-3.64-.74,4.15,4.15,0,0,1-1.82-1.95,15.42,15.42,0,0,1-.53-5.08V268.42h-3.16v-3.35h3.16v-6.29l4.28-2.58v8.88h4.33v3.35h-4.33v14.86a7.51,7.51,0,0,0,.23,2.37,1.79,1.79,0,0,0,.74.84,2.86,2.86,0,0,0,1.47.31A14,14,0,0,0,307.06,286.63Z" transform="translate(-84.26 -113)" fill="#5b6f1a"/><path d="M311.27,290.48V255.41h4.31V268a9.62,9.62,0,0,1,7.61-3.49,10.27,10.27,0,0,1,4.9,1.11,6.53,6.53,0,0,1,3,3.07,14.16,14.16,0,0,1,.9,5.69v16.1h-4.31v-16.1q0-3.23-1.4-4.7a5.21,5.21,0,0,0-4-1.47,7,7,0,0,0-3.6,1,5.61,5.61,0,0,0-2.4,2.69,12.36,12.36,0,0,0-.72,4.69v13.9Z" transform="translate(-84.26 -113)" fill="#5b6f1a"/><path d="M355.91,282.3l4.45.55a10.86,10.86,0,0,1-3.9,6.05,13.21,13.21,0,0,1-16.11-1.28q-3.27-3.43-3.27-9.63,0-6.41,3.3-10a11.18,11.18,0,0,1,8.57-3.54,10.86,10.86,0,0,1,8.33,3.47q3.23,3.47,3.23,9.76,0,.38,0,1.15H341.53a9.76,9.76,0,0,0,2.37,6.41,7,7,0,0,0,5.31,2.23,6.59,6.59,0,0,0,4-1.24A8.26,8.26,0,0,0,355.91,282.3Zm-14.14-7H356a8.61,8.61,0,0,0-1.63-4.81A6.6,6.6,0,0,0,349,268a6.84,6.84,0,0,0-5,2A7.86,7.86,0,0,0,341.77,275.34Z" transform="translate(-84.26 -113)" fill="#5b6f1a"/><path d="M379.29,290.48V255.41h4.31v35.08Z" transform="translate(-84.26 -113)" fill="#5b6f1a"/><path d="M390.29,260.36v-5h4.31v5Zm0,30.12V265.07h4.31v25.41Z" transform="translate(-84.26 -113)" fill="#5b6f1a"/><path d="M401.16,290.48V265.07H405v3.61a9.13,9.13,0,0,1,8.09-4.19,10.62,10.62,0,0,1,4.22.83,6.65,6.65,0,0,1,2.88,2.17,8.32,8.32,0,0,1,1.34,3.18,24.7,24.7,0,0,1,.24,4.19v15.62H417.5V275a11.6,11.6,0,0,0-.5-3.94,4.14,4.14,0,0,0-1.78-2.08,5.67,5.67,0,0,0-3-.78,7,7,0,0,0-4.75,1.75q-2,1.75-2,6.63v13.88Z" transform="translate(-84.26 -113)" fill="#5b6f1a"/><path d="M445.8,282.3l4.45.55a10.86,10.86,0,0,1-3.9,6.05,13.21,13.21,0,0,1-16.11-1.28Q427,284.19,427,278q0-6.41,3.3-10a11.18,11.18,0,0,1,8.57-3.54,10.86,10.86,0,0,1,8.33,3.47q3.23,3.47,3.23,9.76,0,.38,0,1.15H431.42a9.76,9.76,0,0,0,2.37,6.41,7,7,0,0,0,5.31,2.23,6.59,6.59,0,0,0,4-1.24A8.26,8.26,0,0,0,445.8,282.3Zm-14.14-7h14.19a8.61,8.61,0,0,0-1.63-4.81,6.6,6.6,0,0,0-5.34-2.49,6.84,6.84,0,0,0-5,2A7.86,7.86,0,0,0,431.66,275.34Z" transform="translate(-84.26 -113)" fill="#5b6f1a"/><path d="M456.88,290.48v-4.9h4.9v4.9Z" transform="translate(-84.26 -113)" fill="#5b6f1a"/><path d="M470.49,290.48v-4.9h4.9v4.9Z" transform="translate(-84.26 -113)" fill="#5b6f1a"/><path d="M484.11,290.48v-4.9H489v4.9Z" transform="translate(-84.26 -113)" fill="#5b6f1a"/><path d="M499.32,300.79h-3.09q7.15-11.48,7.15-23a39.32,39.32,0,0,0-1-8.92,37.55,37.55,0,0,0-2.27-6.89,80.88,80.88,0,0,0-3.85-7.18h3.09A45.88,45.88,0,0,1,506,266.87a33,33,0,0,1-.63,23.4A43.81,43.81,0,0,1,499.32,300.79Z" transform="translate(-84.26 -113)" fill="#5b6f1a"/></svg>